<svg id="Layer_1" data-name="Layer 1" xmlns="http://www.w3.org/2000/svg" viewBox="0 0 423.1 59.53"><defs><style>.cls-1{fill:none;stroke:red;stroke-width:0px;}</style></defs><title>trace</title><line class="cls-1" x1="30.43" y1="59.53" x2="59.68" y2="59.53"/><line class="cls-1" x1="59.68" x2="30.43"/><path class="cls-1" d="M462.48,854.56a5.81,5.81,0,1,1-5.81-5.81A5.81,5.81,0,0,1,462.48,854.56Z" transform="translate(-435.57 -834)"/><path class="cls-1" d="M446.4,834" transform="translate(-435.57 -834)"/><path class="cls-1" d="M446.4,893.53" transform="translate(-435.57 -834)"/><path class="cls-1" d="M446.4,834" transform="translate(-435.57 -834)"/><path class="cls-1" d="M446.4,893.53" transform="translate(-435.57 -834)"/><line class="cls-1" x1="30.43" x2="30.19" y2="23.54"/><line class="cls-1" x1="30.17" y1="36.04" x2="30.43" y2="59.53"/><line class="cls-1" x1="35.27" y1="12.76" x2="35.27" y2="46.77"/><line class="cls-1" x1="40.1" x2="40.34" y2="23.54"/><line class="cls-1" x1="40.1" y1="59.53" x2="40.33" y2="36.04"/><path class="cls-1" d="M491.55,893.69" transform="translate(-435.57 -834)"/><polyline class="cls-1" points="20.29 48.44 16.56 48.44 16.56 38.08 20.29 38.08"/><polyline class="cls-1" points="23.18 38.08 25.47 38.08 25.47 48.44 21.74 48.44"/><polyline class="cls-1" points="21.74 48.44 21.74 50.37 20.29 50.37 20.29 48.44"/><polyline class="cls-1" points="20.29 38.08 20.29 36.15 21.74 36.15"/><polyline class="cls-1" points="21.74 36.15 23.18 36.15 23.18 38.08"/><path class="cls-1" d="M491.12,854.5a5.81,5.81,0,1,1-5.81-5.81A5.81,5.81,0,0,1,491.12,854.5Z" transform="translate(-435.57 -834)"/><polyline class="cls-1" points="48.98 48.44 45.24 48.44 45.24 38.08 48.98 38.08"/><polyline class="cls-1" points="51.87 38.08 54.16 38.08 54.16 48.44 50.42 48.44"/><polyline class="cls-1" points="50.42 48.44 50.42 50.37 48.98 50.37 48.98 48.44"/><polyline class="cls-1" points="48.98 38.08 48.98 36.15 50.42 36.15"/><polyline class="cls-1" points="50.42 36.15 51.87 36.15 51.87 38.08"/><path class="cls-1" d="M525.59,893.53" transform="translate(-435.57 -834)"/><path class="cls-1" d="M495.25,893.53" transform="translate(-435.57 -834)"/><path class="cls-1" d="M495.25,834" transform="translate(-435.57 -834)"/><line class="cls-1" x1="59.68" x2="59.44" y2="23.54"/><line class="cls-1" x1="59.42" y1="36.04" x2="59.68" y2="59.53"/><line class="cls-1" x1="64.52" y1="12.76" x2="64.52" y2="46.77"/><line class="cls-1" x1="69.35" x2="69.59" y2="23.54"/><line class="cls-1" x1="69.35" y1="59.53" x2="69.58" y2="36.04"/><path class="cls-1" d="M520.8,893.69" transform="translate(-435.57 -834)"/><path class="cls-1" d="M520.37,854.5a5.81,5.81,0,1,1-5.81-5.81A5.81,5.81,0,0,1,520.37,854.5Z" transform="translate(-435.57 -834)"/><polyline class="cls-1" points="78.23 48.44 74.49 48.44 74.49 38.08 78.23 38.08"/><polyline class="cls-1" points="81.12 38.08 83.41 38.08 83.41 48.44 79.67 48.44"/><polyline class="cls-1" points="79.67 48.44 79.67 50.37 78.23 50.37 78.23 48.44"/><polyline class="cls-1" points="78.23 38.08 78.23 36.15 79.67 36.15"/><polyline class="cls-1" points="79.67 36.15 81.12 36.15 81.12 38.08"/><line class="cls-1" x1="88.93" x2="59.68"/><line class="cls-1" x1="59.68" y1="59.53" x2="88.93" y2="59.53"/><path class="cls-1" d="M554.84,893.53" transform="translate(-435.57 -834)"/><path class="cls-1" d="M524.5,893.53" transform="translate(-435.57 -834)"/><path class="cls-1" d="M524.5,834" transform="translate(-435.57 -834)"/><line class="cls-1" x1="88.93" x2="88.69" y2="23.54"/><line class="cls-1" x1="88.67" y1="36.04" x2="88.93" y2="59.53"/><line class="cls-1" x1="93.77" y1="12.76" x2="93.77" y2="46.77"/><line class="cls-1" x1="98.6" x2="98.84" y2="23.54"/><line class="cls-1" x1="98.6" y1="59.53" x2="98.83" y2="36.04"/><path class="cls-1" d="M550.05,893.69" transform="translate(-435.57 -834)"/><path class="cls-1" d="M549.62,854.5a5.81,5.81,0,1,1-5.81-5.81A5.81,5.81,0,0,1,549.62,854.5Z" transform="translate(-435.57 -834)"/><polyline class="cls-1" points="107.48 48.44 103.74 48.44 103.74 38.08 107.48 38.08"/><polyline class="cls-1" points="110.37 38.08 112.66 38.08 112.66 48.44 108.92 48.44"/><polyline class="cls-1" points="108.92 48.44 108.92 50.37 107.48 50.37 107.48 48.44"/><polyline class="cls-1" points="107.48 38.08 107.48 36.15 108.92 36.15"/><polyline class="cls-1" points="108.92 36.15 110.37 36.15 110.37 38.08"/><line class="cls-1" x1="118.18" x2="88.93"/><line class="cls-1" x1="88.93" y1="59.53" x2="118.18" y2="59.53"/><path class="cls-1" d="M584.09,893.53" transform="translate(-435.57 -834)"/><path class="cls-1" d="M553.75,893.53" transform="translate(-435.57 -834)"/><path class="cls-1" d="M553.75,834" transform="translate(-435.57 -834)"/><line class="cls-1" x1="118.18" x2="117.94" y2="23.54"/><line class="cls-1" x1="117.92" y1="36.04" x2="118.18" y2="59.53"/><line class="cls-1" x1="123.02" y1="12.76" x2="123.02" y2="46.77"/><line class="cls-1" x1="127.85" x2="128.09" y2="23.54"/><line class="cls-1" x1="127.85" y1="59.53" x2="128.08" y2="36.04"/><path class="cls-1" d="M579.3,893.69" transform="translate(-435.57 -834)"/><path class="cls-1" d="M578.87,854.5a5.81,5.81,0,1,1-5.81-5.81A5.81,5.81,0,0,1,578.87,854.5Z" transform="translate(-435.57 -834)"/><polyline class="cls-1" points="136.73 48.44 132.99 48.44 132.99 38.08 136.73 38.08"/><polyline class="cls-1" points="139.62 38.08 141.91 38.08 141.91 48.44 138.18 48.44"/><polyline class="cls-1" points="138.18 48.44 138.18 50.37 136.73 50.37 136.73 48.44"/><polyline class="cls-1" points="136.73 38.08 136.73 36.15 138.18 36.15"/><polyline class="cls-1" points="138.18 36.15 139.62 36.15 139.62 38.08"/><line class="cls-1" x1="147.43" x2="118.18"/><line class="cls-1" x1="118.18" y1="59.53" x2="147.43" y2="59.53"/><path class="cls-1" d="M613.34,893.53" transform="translate(-435.57 -834)"/><path class="cls-1" d="M583,893.53" transform="translate(-435.57 -834)"/><path class="cls-1" d="M583,834" transform="translate(-435.57 -834)"/><line class="cls-1" x1="147.43" x2="147.19" y2="23.54"/><line class="cls-1" x1="147.17" y1="36.04" x2="147.43" y2="59.53"/><line class="cls-1" x1="152.27" y1="12.76" x2="152.27" y2="46.77"/><line class="cls-1" x1="157.1" x2="157.34" y2="23.54"/><line class="cls-1" x1="157.1" y1="59.53" x2="157.33" y2="36.04"/><path class="cls-1" d="M608.55,893.69" transform="translate(-435.57 -834)"/><path class="cls-1" d="M608.12,854.5a5.81,5.81,0,1,1-5.81-5.81A5.81,5.81,0,0,1,608.12,854.5Z" transform="translate(-435.57 -834)"/><polyline class="cls-1" points="165.98 48.44 162.24 48.44 162.24 38.08 165.98 38.08"/><polyline class="cls-1" points="168.87 38.08 171.16 38.08 171.16 48.44 167.43 48.44"/><polyline class="cls-1" points="167.43 48.44 167.43 50.37 165.98 50.37 165.98 48.44"/><polyline class="cls-1" points="165.98 38.08 165.98 36.15 167.43 36.15"/><polyline class="cls-1" points="167.43 36.15 168.87 36.15 168.87 38.08"/><line class="cls-1" x1="176.68" x2="147.43"/><line class="cls-1" x1="147.43" y1="59.53" x2="176.68" y2="59.53"/><path class="cls-1" d="M642.59,893.53" transform="translate(-435.57 -834)"/><path class="cls-1" d="M612.25,893.53" transform="translate(-435.57 -834)"/><path class="cls-1" d="M612.25,834" transform="translate(-435.57 -834)"/><line class="cls-1" x1="176.68" x2="176.44" y2="23.54"/><line class="cls-1" x1="176.42" y1="36.04" x2="176.68" y2="59.53"/><line class="cls-1" x1="181.52" y1="12.76" x2="181.52" y2="46.77"/><line class="cls-1" x1="186.35" x2="186.59" y2="23.54"/><line class="cls-1" x1="186.35" y1="59.53" x2="186.58" y2="36.04"/><path class="cls-1" d="M637.8,893.69" transform="translate(-435.57 -834)"/><path class="cls-1" d="M637.37,854.5a5.81,5.81,0,1,1-5.81-5.81A5.81,5.81,0,0,1,637.37,854.5Z" transform="translate(-435.57 -834)"/><polyline class="cls-1" points="195.23 48.44 191.49 48.44 191.49 38.08 195.23 38.08"/><polyline class="cls-1" points="198.12 38.08 200.41 38.08 200.41 48.44 196.68 48.44"/><polyline class="cls-1" points="196.68 48.44 196.68 50.37 195.23 50.37 195.23 48.44"/><polyline class="cls-1" points="195.23 38.08 195.23 36.15 196.68 36.15"/><polyline class="cls-1" points="196.68 36.15 198.12 36.15 198.12 38.08"/><line class="cls-1" x1="205.93" x2="176.68"/><line class="cls-1" x1="176.68" y1="59.53" x2="205.93" y2="59.53"/><path class="cls-1" d="M671.84,893.53" transform="translate(-435.57 -834)"/><path class="cls-1" d="M641.5,893.53" transform="translate(-435.57 -834)"/><path class="cls-1" d="M641.5,834" transform="translate(-435.57 -834)"/><line class="cls-1" x1="205.93" x2="205.69" y2="23.54"/><line class="cls-1" x1="205.67" y1="36.04" x2="205.93" y2="59.53"/><line class="cls-1" x1="210.77" y1="12.76" x2="210.77" y2="46.77"/><line class="cls-1" x1="215.6" x2="215.84" y2="23.54"/><line class="cls-1" x1="215.6" y1="59.53" x2="215.83" y2="36.04"/><path class="cls-1" d="M667.05,893.69" transform="translate(-435.57 -834)"/><path class="cls-1" d="M666.62,854.5a5.81,5.81,0,1,1-5.81-5.81A5.81,5.81,0,0,1,666.62,854.5Z" transform="translate(-435.57 -834)"/><polyline class="cls-1" points="224.48 48.44 220.74 48.44 220.74 38.08 224.48 38.08"/><polyline class="cls-1" points="227.37 38.08 229.66 38.08 229.66 48.44 225.93 48.44"/><polyline class="cls-1" points="225.93 48.44 225.93 50.37 224.48 50.37 224.48 48.44"/><polyline class="cls-1" points="224.48 38.08 224.48 36.15 225.93 36.15"/><polyline class="cls-1" points="225.93 36.15 227.37 36.15 227.37 38.08"/><line class="cls-1" x1="235.18" x2="205.93"/><line class="cls-1" x1="205.93" y1="59.53" x2="235.18" y2="59.53"/><path class="cls-1" d="M701.09,893.53" transform="translate(-435.57 -834)"/><path class="cls-1" d="M670.75,893.53" transform="translate(-435.57 -834)"/><path class="cls-1" d="M670.75,834" transform="translate(-435.57 -834)"/><line class="cls-1" x1="235.18" x2="234.94" y2="23.54"/><line class="cls-1" x1="234.92" y1="36.04" x2="235.18" y2="59.53"/><line class="cls-1" x1="240.02" y1="12.76" x2="240.02" y2="46.77"/><line class="cls-1" x1="244.85" x2="245.09" y2="23.54"/><line class="cls-1" x1="244.85" y1="59.53" x2="245.08" y2="36.04"/><path class="cls-1" d="M696.3,893.69" transform="translate(-435.57 -834)"/><path class="cls-1" d="M695.87,854.5a5.81,5.81,0,1,1-5.81-5.81A5.81,5.81,0,0,1,695.87,854.5Z" transform="translate(-435.57 -834)"/><polyline class="cls-1" points="253.73 48.44 249.99 48.44 249.99 38.08 253.73 38.08"/><polyline class="cls-1" points="256.62 38.08 258.91 38.08 258.91 48.44 255.18 48.44"/><polyline class="cls-1" points="255.18 48.44 255.18 50.37 253.73 50.37 253.73 48.44"/><polyline class="cls-1" points="253.73 38.08 253.73 36.15 255.18 36.15"/><polyline class="cls-1" points="255.18 36.15 256.62 36.15 256.62 38.08"/><line class="cls-1" x1="264.43" x2="235.18"/><line class="cls-1" x1="235.18" y1="59.53" x2="264.43" y2="59.53"/><path class="cls-1" d="M730.34,893.53" transform="translate(-435.57 -834)"/><path class="cls-1" d="M700,893.53" transform="translate(-435.57 -834)"/><path class="cls-1" d="M700,834" transform="translate(-435.57 -834)"/><line class="cls-1" x1="264.43" x2="264.19" y2="23.54"/><line class="cls-1" x1="264.17" y1="36.04" x2="264.43" y2="59.53"/><line class="cls-1" x1="269.27" y1="12.76" x2="269.27" y2="46.77"/><line class="cls-1" x1="274.1" x2="274.34" y2="23.54"/><line class="cls-1" x1="274.1" y1="59.53" x2="274.33" y2="36.04"/><path class="cls-1" d="M725.55,893.69" transform="translate(-435.57 -834)"/><path class="cls-1" d="M725.12,854.5a5.81,5.81,0,1,1-5.81-5.81A5.81,5.81,0,0,1,725.12,854.5Z" transform="translate(-435.57 -834)"/><polyline class="cls-1" points="282.98 48.44 279.24 48.44 279.24 38.08 282.98 38.08"/><polyline class="cls-1" points="285.87 38.08 288.16 38.08 288.16 48.44 284.43 48.44"/><polyline class="cls-1" points="284.43 48.44 284.43 50.37 282.98 50.37 282.98 48.44"/><polyline class="cls-1" points="282.98 38.08 282.98 36.15 284.43 36.15"/><polyline class="cls-1" points="284.43 36.15 285.87 36.15 285.87 38.08"/><line class="cls-1" x1="293.68" x2="264.43"/><line class="cls-1" x1="264.43" y1="59.53" x2="293.68" y2="59.53"/><path class="cls-1" d="M759.59,893.53" transform="translate(-435.57 -834)"/><path class="cls-1" d="M729.25,893.53" transform="translate(-435.57 -834)"/><path class="cls-1" d="M729.25,834" transform="translate(-435.57 -834)"/><line class="cls-1" x1="293.68" x2="293.44" y2="23.54"/><line class="cls-1" x1="293.42" y1="36.04" x2="293.68" y2="59.53"/><line class="cls-1" x1="298.52" y1="12.76" x2="298.52" y2="46.77"/><line class="cls-1" x1="303.35" x2="303.59" y2="23.54"/><line class="cls-1" x1="303.35" y1="59.53" x2="303.58" y2="36.04"/><path class="cls-1" d="M754.8,893.69" transform="translate(-435.57 -834)"/><path class="cls-1" d="M754.37,854.5a5.81,5.81,0,1,1-5.81-5.81A5.81,5.81,0,0,1,754.37,854.5Z" transform="translate(-435.57 -834)"/><polyline class="cls-1" points="312.23 48.44 308.49 48.44 308.49 38.08 312.23 38.08"/><polyline class="cls-1" points="315.12 38.08 317.41 38.08 317.41 48.44 313.68 48.44"/><polyline class="cls-1" points="313.68 48.44 313.68 50.37 312.23 50.37 312.23 48.44"/><polyline class="cls-1" points="312.23 38.08 312.23 36.15 313.68 36.15"/><polyline class="cls-1" points="313.68 36.15 315.12 36.15 315.12 38.08"/><line class="cls-1" x1="322.93" x2="293.68"/><line class="cls-1" x1="293.68" y1="59.53" x2="322.93" y2="59.53"/><path class="cls-1" d="M788.84,893.53" transform="translate(-435.57 -834)"/><path class="cls-1" d="M758.5,893.53" transform="translate(-435.57 -834)"/><path class="cls-1" d="M758.5,834" transform="translate(-435.57 -834)"/><line class="cls-1" x1="322.93" x2="322.69" y2="23.54"/><line class="cls-1" x1="322.67" y1="36.04" x2="322.93" y2="59.53"/><line class="cls-1" x1="327.77" y1="12.76" x2="327.77" y2="46.77"/><line class="cls-1" x1="332.6" x2="332.84" y2="23.54"/><line class="cls-1" x1="332.6" y1="59.53" x2="332.83" y2="36.04"/><path class="cls-1" d="M784.05,893.69" transform="translate(-435.57 -834)"/><path class="cls-1" d="M783.62,854.5a5.81,5.81,0,1,1-5.81-5.81A5.81,5.81,0,0,1,783.62,854.5Z" transform="translate(-435.57 -834)"/><polyline class="cls-1" points="341.48 48.44 337.74 48.44 337.74 38.08 341.48 38.08"/><polyline class="cls-1" points="344.37 38.08 346.66 38.08 346.66 48.44 342.93 48.44"/><polyline class="cls-1" points="342.93 48.44 342.93 50.37 341.48 50.37 341.48 48.44"/><polyline class="cls-1" points="341.48 38.08 341.48 36.15 342.93 36.15"/><polyline class="cls-1" points="342.93 36.15 344.37 36.15 344.37 38.08"/><line class="cls-1" x1="352.18" x2="322.93"/><line class="cls-1" x1="322.93" y1="59.53" x2="352.18" y2="59.53"/><path class="cls-1" d="M818.09,893.53" transform="translate(-435.57 -834)"/><path class="cls-1" d="M787.75,893.53" transform="translate(-435.57 -834)"/><path class="cls-1" d="M787.75,834" transform="translate(-435.57 -834)"/><line class="cls-1" x1="352.18" x2="351.94" y2="23.54"/><line class="cls-1" x1="351.92" y1="36.04" x2="352.18" y2="59.53"/><line class="cls-1" x1="357.02" y1="12.76" x2="357.02" y2="46.77"/><line class="cls-1" x1="361.85" x2="362.09" y2="23.54"/><line class="cls-1" x1="361.85" y1="59.53" x2="362.08" y2="36.04"/><path class="cls-1" d="M813.3,893.69" transform="translate(-435.57 -834)"/><path class="cls-1" d="M812.87,854.5a5.81,5.81,0,1,1-5.81-5.81A5.81,5.81,0,0,1,812.87,854.5Z" transform="translate(-435.57 -834)"/><polyline class="cls-1" points="370.73 48.44 366.99 48.44 366.99 38.08 370.73 38.08"/><polyline class="cls-1" points="373.62 38.08 375.91 38.08 375.91 48.44 372.18 48.44"/><polyline class="cls-1" points="372.18 48.44 372.18 50.37 370.73 50.37 370.73 48.44"/><polyline class="cls-1" points="370.73 38.08 370.73 36.15 372.18 36.15"/><polyline class="cls-1" points="372.18 36.15 373.62 36.15 373.62 38.08"/><line class="cls-1" x1="381.43" x2="352.18"/><line class="cls-1" x1="352.18" y1="59.53" x2="381.43" y2="59.53"/><path class="cls-1" d="M847.34,893.53" transform="translate(-435.57 -834)"/><path class="cls-1" d="M817,893.53" transform="translate(-435.57 -834)"/><path class="cls-1" d="M817,834" transform="translate(-435.57 -834)"/><line class="cls-1" x1="381.43" x2="381.19" y2="23.54"/><line class="cls-1" x1="381.17" y1="36.04" x2="381.43" y2="59.53"/><line class="cls-1" x1="386.27" y1="12.76" x2="386.27" y2="46.77"/><line class="cls-1" x1="391.1" x2="391.34" y2="23.54"/><line class="cls-1" x1="391.1" y1="59.53" x2="391.33" y2="36.04"/><path class="cls-1" d="M842.55,893.69" transform="translate(-435.57 -834)"/><path class="cls-1" d="M842.12,854.5a5.81,5.81,0,1,1-5.81-5.81A5.81,5.81,0,0,1,842.12,854.5Z" transform="translate(-435.57 -834)"/><polyline class="cls-1" points="399.98 48.44 396.24 48.44 396.24 38.08 399.98 38.08"/><polyline class="cls-1" points="402.87 38.08 405.16 38.08 405.16 48.44 401.43 48.44"/><polyline class="cls-1" points="401.43 48.44 401.43 50.37 399.98 50.37 399.98 48.44"/><polyline class="cls-1" points="399.98 38.08 399.98 36.15 401.43 36.15"/><polyline class="cls-1" points="401.43 36.15 402.87 36.15 402.87 38.08"/><line class="cls-1" x1="410.68" x2="381.43"/><line class="cls-1" x1="381.43" y1="59.53" x2="410.68" y2="59.53"/><line class="cls-1" x1="30.43" x2="10.84"/><line class="cls-1" x1="30.43" y1="59.53" x2="10.84" y2="59.53"/><path class="cls-1" d="M846.25,893.53" transform="translate(-435.57 -834)"/><path class="cls-1" d="M846.25,834" transform="translate(-435.57 -834)"/><path class="cls-1" d="M858.66,893.53" transform="translate(-435.57 -834)"/><path class="cls-1" d="M446.4,893.53" transform="translate(-435.57 -834)"/><path class="cls-1" d="M446.4,834" transform="translate(-435.57 -834)"/><path class="cls-1" d="M858.66,834" transform="translate(-435.57 -834)"/><line class="cls-1" x1="10.84" y1="13.87" y2="2.26"/><line class="cls-1" y1="2.26" x2="0.03" y2="27.44"/><line class="cls-1" x1="0.03" y1="27.44" x2="10.84" y2="18.31"/><line class="cls-1" x1="10.84" y1="41.56" y2="30.69"/><line class="cls-1" y1="30.69" x2="0.05" y2="54.98"/><line class="cls-1" x1="0.05" y1="54.98" x2="10.84" y2="45.52"/><line class="cls-1" x1="10.84" y1="13.87" x2="10.84"/><line class="cls-1" x1="10.84" y1="45.52" x2="10.84" y2="59.53"/><line class="cls-1" x1="10.84" y1="41.56" x2="10.84" y2="18.31"/><line class="cls-1" x1="421.91" y1="14.61" x2="412.1" y2="4.8"/><line class="cls-1" x1="412.1" y1="4.8" x2="412.1" y2="27.19"/><line class="cls-1" x1="412.1" y1="27.19" x2="421.91" y2="17.38"/><line class="cls-1" x1="421.91" y1="42.01" x2="412.1" y2="32.19"/><line class="cls-1" x1="412.1" y1="32.19" x2="412.1" y2="54.59"/><line class="cls-1" x1="412.1" y1="54.59" x2="421.91" y2="44.78"/><line class="cls-1" x1="423.1" x2="422.1" y2="14.61"/><line class="cls-1" x1="421.91" y1="14.61" x2="422.1" y2="14.61"/><line class="cls-1" x1="421.91" y1="44.78" x2="422.1" y2="44.78"/><line class="cls-1" x1="422.1" y1="44.78" x2="423.1" y2="59.53"/><line class="cls-1" x1="421.91" y1="17.38" x2="422.1" y2="17.38"/><line class="cls-1" x1="421.91" y1="42.01" x2="422.1" y2="42.01"/><line class="cls-1" x1="423.1" x2="410.68"/><line class="cls-1" x1="423.1" y1="59.53" x2="410.68" y2="59.53"/><line class="cls-1" x1="422.1" y1="17.38" x2="422.35" y2="18.64"/><line class="cls-1" x1="422.35" y1="18.64" x2="422.35" y2="40.75"/><line class="cls-1" x1="422.1" y1="42.01" x2="422.35" y2="40.75"/></svg>